<?xml version="1.0" standalone="no"?><!DOCTYPE svg PUBLIC "-//W3C//DTD SVG 1.1//EN" "http://www.w3.org/Graphics/SVG/1.1/DTD/svg11.dtd"><svg t="1510382382205" class="icon" style="" viewBox="0 0 1024 1024" version="1.1" xmlns="http://www.w3.org/2000/svg" p-id="5419" xmlns:xlink="http://www.w3.org/1999/xlink" width="200" height="200"><defs><style type="text/css"></style></defs><path d="M332.009 870.242c-39.658 0-71.78 32.121-71.78 71.78s32.121 71.78 71.78 71.78 71.78-32.121 71.78-71.78c-0.001-39.658-32.086-71.78-71.78-71.78z m502.458 0c-39.658 0-71.78 32.121-71.78 71.78s32.121 71.78 71.78 71.78c39.658 0 71.78-32.121 71.78-71.78 0-39.658-32.085-71.78-71.78-71.78z m152.856-721.529c-18.34-20.708-43.535-31.942-70.955-31.942H197.242l-2.547-14.607C188.414 49.944 142.439 9.101 90.04 9.101H44.89C25.043 9.101 9 25.143 9 44.991s16.043 35.89 35.89 35.89h45.149c15.612 0 31.547 14.213 33.665 31.691l34.669 200.194 60.87 428.56c6.317 52.22 51.789 93.242 103.506 93.242h583.498c19.847 0 35.89-16.043 35.89-35.89s-16.042-35.89-35.89-35.89H322.749c-15.288 0-30.327-14.14-32.336-30.794l-5.958-41.883 569.43-35.209c51.681 0 97.154-40.949 103.255-91.267l56.563-323.404c4.198-34.561-5.421-67.868-26.38-91.518z" p-id="5420" fill="#ffffff"></path></svg>