<?xml version="1.0" standalone="no"?><!DOCTYPE svg PUBLIC "-//W3C//DTD SVG 1.1//EN" "http://www.w3.org/Graphics/SVG/1.1/DTD/svg11.dtd"><svg t="1510471800308" class="icon" style="" viewBox="0 0 1024 1024" version="1.1" xmlns="http://www.w3.org/2000/svg" p-id="6333" xmlns:xlink="http://www.w3.org/1999/xlink" width="250" height="250"><defs><style type="text/css"></style></defs><path d="M828.691531 408.944706h-61.229077V216.144786C767.564844 96.963104 679.919208 0 572.205179 0H452.613939c-107.714029 0-195.359664 96.963104-195.359664 216.144786v192.79992h-61.945806c-42.491751 0-77.09949 38.293771-77.09949 85.29067v444.473953c0 46.9969 34.607739 85.290671 77.09949 85.290671H828.691531c42.491751 0 77.09949-38.293771 77.09949-85.290671V494.235376c0-47.09929-34.607739-85.290671-77.09949-85.29067z m-482.358164-192.79992c0-64.812719 47.713629-117.543446 106.280572-117.543446h119.59124c58.566943 0 106.280572 52.730727 106.280572 117.543446v192.79992h-332.152384V216.144786z" p-id="6334" fill="#ffffff"></path></svg>